<svg width="20" height="14" viewBox="0 0 20 14" fill="none" xmlns="http://www.w3.org/2000/svg">
<path fill-rule="evenodd" clip-rule="evenodd" d="M19.3452 2.72923C19.1595 1.36767 18.8501 0.934443 18.6025 0.748775C18.2312 0.439329 17.5504 0.377439 16.6221 0.31555C15.1367 0.191772 12.6612 0.129883 9.99994 0.129883C7.3387 0.129883 4.86313 0.191772 3.37779 0.31555C2.44945 0.377439 1.76867 0.501218 1.39733 0.748775C1.14978 0.934443 0.84033 1.36767 0.654662 2.72923C0.407105 4.70969 0.407105 9.28949 0.654662 11.2699C0.84033 12.6315 1.14978 13.0647 1.39733 13.2504C1.76867 13.5599 2.44945 13.6217 3.37779 13.6836C4.86313 13.8074 7.3387 13.8693 9.99994 13.8693C12.6612 13.8693 15.1367 13.8074 16.6221 13.6836C17.5504 13.6217 18.2312 13.498 18.6025 13.2504C18.8501 13.0647 19.1595 12.6315 19.3452 11.2699C19.5928 9.28949 19.5928 4.70969 19.3452 2.72923ZM7.71004 10.0322V4.02891L13.4657 6.99959L7.71004 10.0322Z" fill="white"/>
</svg>
